<svg xmlns="http://www.w3.org/2000/svg" xmlns:xlink="http://www.w3.org/1999/xlink" id="Layer_3" viewBox="0 0 298.47 312.9"><defs><linearGradient id="linear-gradient" x1="53.65" x2="53.65" y1="177.85" y2="126.08" gradientUnits="userSpaceOnUse"><stop offset="0" stop-color="#fef08b"/><stop offset=".54" stop-color="#fdf19e"/><stop offset="1" stop-color="#fcf3b2"/></linearGradient><linearGradient xlink:href="#linear-gradient" id="linear-gradient-2" x1="104.85" x2="104.85" y1="178.86" y2="126.44"/><linearGradient xlink:href="#linear-gradient" id="linear-gradient-3" x1="219.04" x2="219.04" y1="179.29" y2="126.45"/><linearGradient xlink:href="#linear-gradient" id="linear-gradient-4" x1="277.51" x2="277.51" y2="127.45"/><linearGradient xlink:href="#linear-gradient" id="linear-gradient-5" x1="15.71" x2="15.71" y2="172.6"/><linearGradient xlink:href="#linear-gradient" id="linear-gradient-6" x1="15.71" x2="15.71" y1="179.38" y2="104.59"/><linearGradient xlink:href="#linear-gradient" id="linear-gradient-7" x1="15.75" x2="15.75" y1="112.22" y2="107.6"/><linearGradient xlink:href="#linear-gradient" id="linear-gradient-8" x1="15.71" x2="15.71" y1="124.48" y2="122.53"/><linearGradient xlink:href="#linear-gradient" id="linear-gradient-9" x1="15.73" x2="15.73" y1="159.38" y2="130.53"/><linearGradient xlink:href="#linear-gradient" id="linear-gradient-10" x1="15.71" x2="15.71" y1="179.38" y2="175.37"/><linearGradient xlink:href="#linear-gradient" id="linear-gradient-11" x1="15.72" x2="15.72" y1="173.41" y2="164.42"/><linearGradient xlink:href="#linear-gradient" id="linear-gradient-12" x1="109.12" x2="109.12" y1="156.17" y2="144.51"/><linearGradient xlink:href="#linear-gradient" id="linear-gradient-13" x1="166.97" x2="166.97" y1="177.52" y2="123.17"/><linearGradient xlink:href="#linear-gradient" id="linear-gradient-14" x1="138.58" x2="138.58" y1="177.5" y2="165.16"/><linearGradient xlink:href="#linear-gradient" id="linear-gradient-15" x1="211.48" x2="211.48" y1="126.53" y2="109.85" gradientTransform="rotate(30 211.49 118.2)"/><linearGradient xlink:href="#linear-gradient" id="linear-gradient-16" x1="226.59" x2="226.59" y1="126.53" y2="109.85" gradientTransform="rotate(-30 226.59 118.2)"/><linearGradient xlink:href="#linear-gradient" id="linear-gradient-17" x1="219.04" x2="219.04" y1="122.26" y2="107.76"/><linearGradient xlink:href="#linear-gradient" id="linear-gradient-18" x1="219.04" x2="219.04" y1="122.26" y2="107.76"/><linearGradient id="linear-gradient-19" x1="53.65" x2="53.65" y1="178.85" y2="124.54" gradientUnits="userSpaceOnUse"><stop offset="0" stop-color="#89784e"/><stop offset=".05" stop-color="#98885b"/><stop offset=".16" stop-color="#b7a976"/><stop offset=".28" stop-color="#d0c48c"/><stop offset=".41" stop-color="#e3d99c"/><stop offset=".56" stop-color="#f1e7a8"/><stop offset=".73" stop-color="#f9f0af"/><stop offset="1" stop-color="#fcf3b2"/></linearGradient><linearGradient xlink:href="#linear-gradient-19" id="linear-gradient-20" x1="104.85" x2="104.85" y1="179.86" y2="125.44"/><linearGradient xlink:href="#linear-gradient-19" id="linear-gradient-21" x1="219.04" x2="219.04" y1="180.29" y2="125.45"/><linearGradient xlink:href="#linear-gradient-19" id="linear-gradient-22" x1="277.46" x2="277.46" y2="126.45"/><linearGradient xlink:href="#linear-gradient-19" id="linear-gradient-23" x1="15.71" x2="15.71" y2="171.6"/><linearGradient xlink:href="#linear-gradient-19" id="linear-gradient-24" x1="15.71" x2="15.71" y1="180.38" y2="103.59"/><linearGradient xlink:href="#linear-gradient-19" id="linear-gradient-25" x1="15.84" x2="15.84" y1="113.22" y2="106.6"/><linearGradient xlink:href="#linear-gradient-19" id="linear-gradient-26" x1="15.7" x2="15.7" y1="125.48" y2="121.53"/><linearGradient xlink:href="#linear-gradient-19" id="linear-gradient-27" x1="15.75" x2="15.75" y1="160.38" y2="129.53"/><linearGradient xlink:href="#linear-gradient-19" id="linear-gradient-28" x1="15.71" x2="15.71" y1="180.38" y2="174.37"/><linearGradient xlink:href="#linear-gradient-19" id="linear-gradient-29" x1="15.72" x2="15.72" y1="174.41" y2="163.41"/><linearGradient xlink:href="#linear-gradient-19" id="linear-gradient-30" x1="109.12" x2="109.12" y1="157.17" y2="143.51"/><linearGradient xlink:href="#linear-gradient-19" id="linear-gradient-31" x1="166.92" x2="166.92" y1="178.52" y2="120.14"/><linearGradient xlink:href="#linear-gradient-19" id="linear-gradient-32" x1="139.33" x2="139.33" y1="178.5" y2="157.5"/><linearGradient xlink:href="#linear-gradient-19" id="linear-gradient-33" x1="211.48" x2="211.48" y1="127.53" y2="108.85"/><linearGradient xlink:href="#linear-gradient-19" id="linear-gradient-34" x1="226.59" x2="226.59" y1="127.53" y2="108.85"/><linearGradient xlink:href="#linear-gradient-19" id="linear-gradient-35" x1="219.04" x2="219.04" y1="123.26" y2="106.76"/><linearGradient xlink:href="#linear-gradient-19" id="linear-gradient-36" x1="219.04" x2="219.04" y1="123.26" y2="106.76"/><clipPath id="clippath"><path d="M7.52 189.64h107.8V212H7.52z" class="cls-12"/></clipPath><clipPath id="clippath-1"><path d="M183.15 189.64h107.8V212h-107.8z" class="cls-12"/></clipPath><style>.cls-12,.cls-2,.cls-33,.cls-38{stroke-width:0}.cls-2{fill:#89784e}.cls-12{fill:none}.cls-33{fill:#be1f3e}.cls-38{fill:#fef08b}</style></defs><path d="M290.86 223.65a152.15 152.15 0 0 1-14.22 24.15c-2.24 3.11-4.66 6.07-7.02 9.08-.38.48-.91.85-1.37 1.27-6.09-3.57-12.17-7.14-18.27-10.7-3.7-2.17-7.41-4.3-11.25-6.52l9.99-17.28h42.14ZM59.6 72.23 51.18 86.8H8.8a151.4 151.4 0 0 1 20.21-30.84c.31-.37.78-.61 1.17-.9 5.54 3.25 11.07 6.51 16.61 9.75 4.21 2.46 8.43 4.88 12.81 7.42ZM289.41 86.8h-42.27l-8.41-14.56c4.76-2.76 9.43-5.44 14.07-8.15 5.16-3.01 10.29-6.04 15.43-9.05 1.63 1.86 3.35 3.65 4.86 5.6a155.28 155.28 0 0 1 16.32 26.16ZM59.6 240.93c-4.82 2.79-9.58 5.53-14.33 8.3-5.05 2.94-10.08 5.92-15.12 8.88-.58-.53-1.24-.99-1.73-1.59a155.98 155.98 0 0 1-20.81-32.87h42.01l9.98 17.28ZM177.43 2.37v34.39h-56.61V2.68c3.29-.57 6.56-1.42 9.87-1.65 7.74-.53 15.52-1.22 23.25-.99 7.84.24 15.66 1.51 23.48 2.32Zm-56.61 308.2v-34.1h56.66v34.1c-4.75.69-9.49 1.75-14.27 2-7.87.42-15.79.64-23.66.34-6.17-.23-12.31-1.37-18.47-2.12-.09-.01-.18-.14-.26-.21Z" class="cls-33"/><path d="M201.48 304.06c-3.49-6.14-6.97-12.28-10.47-18.41-2.12-3.72-4.27-7.43-6.49-11.27l49.03-28.28 17.21 29.74a151.3 151.3 0 0 1-36.85 23.45c-3.48 1.57-7.07 2.93-10.62 4.35-.57.23-1.21.28-1.82.42ZM96.86 9.14c3.17 5.59 6.33 11.18 9.51 16.76 2.41 4.23 4.85 8.44 7.38 12.83L64.7 67.03l-6.74-11.7L48.5 38.9c-.29-.49-.64-.95-.96-1.43 1.68-1.48 3.28-3.04 5.04-4.41a154 154 0 0 1 42.8-23.71c.45-.16.97-.14 1.46-.2Zm153.86 28-17.2 29.79-49.03-28.31 17.04-29.51c3.13 1.15 6.39 2.05 9.37 3.51 6.97 3.41 14.05 6.7 20.63 10.77 6.67 4.13 12.81 9.13 19.18 13.75ZM47.6 275.75l17.05-29.54 49.07 28.33-17.05 29.53c-4.46-1.78-9.09-3.23-13.36-5.4a257.4 257.4 0 0 1-20.66-11.54c-5.23-3.29-9.98-7.34-14.94-11.07-.08-.06-.08-.21-.12-.32Z" class="cls-2"/><path d="M30.61 126.08c.48.19 1.21.38 2.2.58.98.19 2.08.36 3.28.5 1.2.14 2.3.22 3.31.22l-8.78.79v-2.09Zm46.08 1.3v3.02H30.61v-3.02h46.08Zm-38.09 2.81v.22c-2.21.05-3.97.73-5.29 2.05s-1.98 3.11-1.98 5.36v.79l-.72.07v-8.5h7.99Zm9.86 42.41v5.26H42.7v-.72h.94c1.25 0 2.32-.44 3.2-1.33s1.36-1.96 1.4-3.2h.22Zm10.58-44.93v50.18h-10.8v-50.18h10.8Zm-.22 44.93h.22a4.65 4.65 0 0 0 1.4 3.2 4.37 4.37 0 0 0 3.2 1.33h.94v.72h-5.76v-5.26Zm17.86-46.51v2.09l-8.78-.79c1.06 0 2.17-.07 3.35-.22 1.18-.14 2.27-.31 3.28-.5 1.01-.19 1.73-.38 2.16-.58Zm0 4.1v8.5l-.72-.07v-.79c0-2.26-.66-4.04-1.98-5.36-1.32-1.32-3.11-2-5.36-2.05v-.22h8.06Z" style="fill:url(#linear-gradient);stroke-width:0"/><path d="m128.89 156.83.65 12.38a18.13 18.13 0 0 1-4.25 4.82 21.15 21.15 0 0 1-6.62 3.49 29.38 29.38 0 0 1-9.36 1.33c-5.86-.05-10.98-1.12-15.37-3.2a23.58 23.58 0 0 1-10.19-8.96c-2.4-3.89-3.6-8.59-3.6-14.11s1.18-10.02 3.53-13.93a23.23 23.23 0 0 1 10.12-9.04c4.39-2.11 9.64-3.17 15.73-3.17 3.84 0 7.28.38 10.33 1.15a32.3 32.3 0 0 1 7.6 2.81l.14 12.31h-.65c-1.3-4.75-3.41-8.15-6.34-10.19-2.93-2.04-6.36-3.06-10.3-3.06s-7.13.94-9.86 2.81-4.85 4.51-6.34 7.92c-1.49 3.41-2.23 7.49-2.23 12.24s.71 8.86 2.12 12.31a18.3 18.3 0 0 0 6.05 8.06 15.93 15.93 0 0 0 9.25 3.02c3.7 0 6.82-.6 9.36-1.8a13.8 13.8 0 0 0 6.16-5.98c1.56-2.78 2.72-6.53 3.49-11.23h.58Z" style="fill:url(#linear-gradient-2);stroke-width:0"/><path d="M254.03 177.13v.72h-21.6v-.64h1.08c.81 0 1.48-.33 2.01-.98.53-.64.8-1.35.8-2.12v-.22l-2.81-25.87-13.47 23.35a31.05 31.05 0 0 0-2.12 4.32 10 10 0 0 0-.69 3.6h-.71l-18.51-31.07-2.81 25.67v.22c0 .77.28 1.48.83 2.12.55.65 1.21.98 1.98.98h1.15v.64h-15.12v-.72h1.15c1.3 0 2.45-.39 3.46-1.18a4.89 4.89 0 0 0 1.8-3.35h.03l5.95-46.15h.64l22.38 36.73 21.4-36.73h.65l6.18 46.42a5 5 0 0 0 1.81 3.08 5.35 5.35 0 0 0 3.38 1.18h1.16Z" style="fill:url(#linear-gradient-3);stroke-width:0"/><path d="M262.31 132.71h-.22a4.3 4.3 0 0 0-1.37-3.2 4.47 4.47 0 0 0-3.24-1.33h-.86l-.07-.72h5.76v5.26Zm0 39.89v5.26h-5.76v-.72h.94c1.25 0 2.32-.44 3.2-1.33s1.36-1.96 1.4-3.2h.22Zm10.58-45.14v50.4h-10.8v-50.4h10.8Zm7.7 0c4.13 0 7.48.6 10.04 1.8a12.86 12.86 0 0 1 5.76 4.93 14.35 14.35 0 0 1 2.05 7.09c.1 2.45-.31 4.68-1.22 6.7a13.85 13.85 0 0 1-3.78 5.04 15.18 15.18 0 0 1-5.44 2.92c-2.02.6-4.12.74-6.3.43a15.7 15.7 0 0 1-6.37-2.48v-.72c1.2 0 2.27-.1 3.2-.29.94-.19 1.92-.55 2.95-1.08 1.03-.53 2-1.34 2.92-2.45.91-1.1 1.61-2.57 2.09-4.39a13.68 13.68 0 0 0 .44-4.32c-.05-3.07-.88-5.53-2.48-7.38-1.61-1.85-3.88-2.77-6.8-2.77h-4.97l-.72-3.02h8.64Zm-7.92 45.14h.22a4.65 4.65 0 0 0 1.4 3.2 4.37 4.37 0 0 0 3.2 1.33h.94v.72h-5.76v-5.26Z" style="fill:url(#linear-gradient-4);stroke-width:0"/><rect width="21.89" height="5.26" x="4.77" y="172.6" rx="2.04" ry="2.04" style="fill:url(#linear-gradient-5);stroke-width:0"/><path d="M15.71 104.59c.71 0 1.28.33 1.62 1.08H14.1c.34-.72.9-1.07 1.61-1.08Zm-.57 3.04a5.86 5.86 0 0 1 5.94 3.84c-.51.25-1.03.55-1.58.74-.14.05-.42-.12-.55-.27-.94-1.09-1.86-2.21-2.79-3.33l-.43-.57c-1.07 1.29-2.09 2.46-3.04 3.68-.39.49-.72.67-1.26.3-.32-.22-.68-.34-1.02-.5.14-1.65 2.56-3.65 4.71-3.88Zm4.69 12.9h-8.22c.18-2.33-.11-4.55-1-6.73.5.25 1.02.47 1.51.74.36.21.59.14.85-.19.89-1.09 1.78-2.16 2.73-3.28.91 1.08 1.79 2.1 2.63 3.16.35.45.65.51 1.1.24.43-.26.9-.44 1.42-.61a13.22 13.22 0 0 0-1.04 6.66Zm.54 3.95h-9.31c.16-.57.28-1.08.47-1.59.07-.15.28-.35.43-.35 2.52-.02 5.02-.01 7.54 0 .14.01.36.16.4.31.19.51.32 1.06.47 1.63Zm-11.86 4.04c-.74-.01-1.17-.56-1-1.27.13-.55.49-.71 1-.71h8.36l6.04.01c.68 0 1.03.33 1.05.94.02.66-.36 1.03-1.06 1.03H8.51Zm-1.24 30.47c2.55-3.86 4-8.17 4.22-12.88.18-3.8.07-7.6.04-11.4a7.88 7.88 0 0 0-1.33-4.18h10.76c-.35 1.24-.86 2.45-1 3.71-.21 1.88-.19 3.8-.18 5.69.01 2.82-.1 5.66.36 8.47a26.49 26.49 0 0 0 3.96 10.52c.09.13.15.26.26.46H7.08c.08-.14.12-.28.2-.39Zm-1.39 2.51h19.7v.9H5.89v-.9Zm-4.2 6.02c.66-.62 1.44-1.08 2.17-1.63.5-.38.98-.83 1.51-1.2.22-.15.53-.24.79-.24 5.73-.01 11.45.02 17.19-.01 1.42-.01 2.77-.07 3.91 1.18.67.74 1.66 1.14 2.42 1.81 1.28 1.15 1.31 3 .2 4.32-.23.28-.49.6-.59.95-.16.62-.49.73-1.05.73-4.17-.03-8.35-.02-12.53-.02l-12.58.01c-.45 0-.72-.07-.89-.59-.13-.42-.4-.79-.68-1.13a3.05 3.05 0 0 1 .14-4.18ZM29.6 179.4H1.86c-1.13-.02-1.86-.8-1.86-2.02-.01-1.18.74-2.01 1.84-2.01h27.74c1.12 0 1.84.79 1.84 1.99.01 1.24-.7 2.02-1.82 2.02Z" style="fill:url(#linear-gradient-6);stroke-width:0"/><path d="M21.08 111.47c-.51.25-1.03.55-1.58.74-.14.05-.42-.12-.55-.27-.94-1.09-1.86-2.21-2.79-3.33l-.43-.57c-1.07 1.29-2.09 2.46-3.04 3.68-.39.49-.72.67-1.26.3-.32-.22-.68-.34-1.02-.5.14-1.65 2.56-3.65 4.71-3.88a5.86 5.86 0 0 1 5.94 3.84Z" style="fill:url(#linear-gradient-7);stroke-width:0"/><path d="M20.37 124.48h-9.31c.16-.57.28-1.08.47-1.59.07-.15.28-.35.43-.35 2.52-.02 5.02-.01 7.54 0 .14.01.36.16.4.31.19.51.32 1.06.47 1.63Z" style="fill:url(#linear-gradient-8);stroke-width:0"/><path d="M24.38 159.38H7.08c.08-.14.12-.28.2-.39 2.55-3.86 4-8.17 4.22-12.88.18-3.8.07-7.6.04-11.4a7.88 7.88 0 0 0-1.33-4.18h10.76c-.35 1.24-.86 2.45-1 3.71-.21 1.88-.19 3.8-.18 5.69.01 2.82-.1 5.66.36 8.47a26.49 26.49 0 0 0 3.96 10.52c.09.13.15.26.26.46Z" style="fill:url(#linear-gradient-9);stroke-width:0"/><path d="M31.42 177.36c.01 1.24-.7 2.02-1.82 2.02H1.86c-1.13 0-1.86-.78-1.86-2-.01-1.18.74-2.01 1.84-2.01h27.74c1.12 0 1.84.79 1.84 1.99Z" style="fill:url(#linear-gradient-10);stroke-width:0"/><path d="M29.85 171.73c-.23.28-.49.6-.59.95-.16.62-.49.73-1.05.73-4.17-.03-8.35-.02-12.53-.02l-12.58.01c-.45 0-.72-.07-.89-.59-.13-.42-.4-.79-.68-1.13a3.05 3.05 0 0 1 .14-4.18c.66-.62 1.44-1.08 2.17-1.63.5-.38.98-.83 1.51-1.2.22-.15.53-.24.79-.24 5.73-.01 11.45.02 17.19-.01 1.42-.01 2.77-.07 3.91 1.18.67.74 1.66 1.14 2.42 1.81 1.28 1.15 1.31 3 .2 4.32Z" style="fill:url(#linear-gradient-11);stroke-width:0"/><circle cx="109.12" cy="150.34" r="5.83" style="stroke-width:0;fill:url(#linear-gradient-12)"/><path d="M181.51 177.52h-20.19c.62-.32.98-.47 1.31-.67.89-.53 1.85-.99 2.64-1.65 1.43-1.18 1.83-2.67 1.14-4.5-2.46-6.61-4.86-13.25-7.28-19.88l-5.69-15.52-.86.72-.2-.1 4.21-12.75c.88 2.37 1.66 4.43 2.41 6.51 4.92 13.51 9.85 27 14.72 40.53 1.02 2.84 3.07 4.62 5.57 6.02.72.41 1.49.73 2.24 1.09l-.03.2Z" style="fill:url(#linear-gradient-13);stroke-width:0"/><path d="M145.56 177.5h-13.95c4.8-2.92 7.49-7.53 9.97-12.33-.41 1.72-.86 3.44-1.21 5.17-.66 3.3.24 5.01 3.31 6.39.52.23 1.05.43 1.88.77Z" style="fill:url(#linear-gradient-14);stroke-width:0"/><path d="M153.42 148.96c1.38 1.46 2.92 3.06 4.43 4.7 1.32 1.43 2.34 2.96 1.65 5.06a4 4 0 0 1-5.23 2.53 2.75 2.75 0 0 0-1.63 0c-1.66.54-3.18.22-4.34-1.04-1.18-1.27-1.51-3.02-.66-4.52.55-.96 1.33-1.81 2.07-2.65 1.28-1.45 2.6-2.86 3.72-4.08Zm.03 12.69 2.09 2.32h-4.16l2.07-2.32Z" class="cls-33"/><rect width="10.18" height="14.49" x="206.39" y="110.94" rx="1.31" ry="1.31" style="fill:url(#linear-gradient-15);stroke-width:0" transform="rotate(-30 211.5 118.19)"/><rect width="10.18" height="14.49" x="221.5" y="110.94" rx="1.31" ry="1.31" style="fill:url(#linear-gradient-16);stroke-width:0" transform="rotate(30 226.59 118.19)"/><rect width="10.18" height="14.49" x="213.95" y="107.76" rx="1.31" ry="1.31" style="fill:url(#linear-gradient-18);stroke-width:0"/><path id="_Mirror_Repeat_" d="M95.98 208.67c2.52 3.96 7.67 3.69 11.69 2.72 2.07-.5 4.05-1.33 5.45-3s2.12-3.8 2.19-5.96c.16-4.71-2.84-8.68-6.89-10.81-4.75-2.5-10.34-2.29-15.47-1.24s-10.23 3.43-14.83 6.32c-4.83 3.03-9.29 6.62-14.28 9.39a34.32 34.32 0 0 1-7.62 3.3c-2.43.66-5.04.44-7.45-.24-5.21-1.46-9.39-5.08-13.79-8.05-2.45-1.65-5.05-3.18-7.89-4.05s-5.9-.92-8.89-.39c-4.73.84-10.16 3.29-10.7 8.7-.01.13 4.83.08 4.92-.87a7.84 7.84 0 0 1 2.52-4.99c.67-.62 1.43-1.16 2.25-1.58.37-.19.87-.29 1.2-.51.25-.17.1-.04-.07 0-.57.12.16.01.26.01 4.65.04 9.04 2.87 12.72 5.44 3.89 2.73 7.72 5.8 12.34 7.21s9.84.88 14.55-.31c9.77-2.47 17.21-9.17 25.62-14.28 3.59-2.18 7.89-4.7 12.22-4.71s8.93 1.76 11.76 5.16 3.58 8.64 1.03 12.42a7.62 7.62 0 0 1-2.2 2.18c-.21.13-.83.31-.99.5.94-1.18 1.31-.09.88-.16-.26-.04-.55-.02-.82-.05a6.68 6.68 0 0 1-4.82-3.02c-.3-.47-2.1-.02-2.53.06-.17.03-2.54.58-2.4.81Z" class="cls-2" style="clip-path:url(#clippath)"/><path id="_Mirror_Repeat_-2" d="M197.64 208.55a6.54 6.54 0 0 1-1.6 1.76c-.33.25-.7.4-1.04.62-.77.49 1.36.09.41-.06-1.88-.29-3.51-.79-4.87-2.21-2.69-2.82-3.11-7.31-1.62-10.81a12.03 12.03 0 0 1 3.96-4.84c.84-.62 1.74-1.14 2.7-1.56s1.6-.6 2.3-.66c4.72-.34 9.49 1.54 13.59 3.7 8.67 4.56 15.87 11.7 25.26 14.94a27.24 27.24 0 0 0 14.46.85c4.81-.97 8.91-3.25 12.88-6.05 2.2-1.55 4.36-3.18 6.68-4.54 1.9-1.11 4.12-2.44 6.33-2.24 4.26.38 8.5 3.45 8.94 7.9.04.44 4.99-.19 4.92-.87-.43-4.33-4.37-7.21-8.41-7.98-5.25-1-11.23.8-15.79 3.37s-8.67 6.4-13.54 8.71a11.38 11.38 0 0 1-7.06.99 29 29 0 0 1-7.96-2.49c-10.04-4.58-17.9-13.22-28.63-16.4a27.78 27.78 0 0 0-16.15.33c-4.34 1.36-8.48 4.3-9.82 8.84s.47 10.17 5.27 11.7c2.43.78 5.15.46 7.59-.1s4.63-1.45 5.97-3.55c.28-.44-1.63-.18-1.8-.16-.6.08-2.59.18-2.98.8Z" class="cls-2" style="clip-path:url(#clippath-1)"/><path d="M149.27 109.98c2 .09 3.91.47 5.73 1.28.24.11.5.37.55.61.12.53-.4.83-.99.58a13.23 13.23 0 0 0-10.33-.12l-.34.14c-.41.18-.74.09-.92-.31-.18-.42.03-.73.43-.87.89-.31 1.77-.67 2.69-.86 1.04-.22 2.11-.3 3.17-.44Z" class="cls-38"/><path d="M140.26 101.17c-1.22.09-1.97-.31-2.31-1.23a1.9 1.9 0 0 1 2.94-2.15c.73.57.88 1.4.42 2.52.87.55 1.74 1.13 2.64 1.67.34.2.54.06.55-.38.01-.92 0-1.83 0-2.74v-2.32c.01-.32-.1-.48-.39-.64-1.17-.63-1.65-1.84-1.17-2.85.45-.92 1.38-1.42 2.53-1.32.78.06 1.54.7 1.78 1.52.28.94-.01 1.81-.83 2.47l-.14.13 2.17 4.36c.1.2.18.43.31.61.14.18.32.45.49.46.16 0 .41-.24.51-.43.79-1.42 1.55-2.87 2.32-4.3l.31-.59c-.64-.41-1.19-.92-1.23-1.71-.02-.49.07-1.03.28-1.46.42-.88 1.48-1.27 2.43-1.01.9.24 1.55 1.15 1.56 2.14 0 1.11-.67 1.85-2.08 2.23v5.18c0 .76.39.98 1.05.6.9-.51 1.77-1.05 2.66-1.57-.42-1.15-.29-2.01.69-2.66a1.9 1.9 0 0 1 2.25.2c.59.53.8 1.43.49 2.17-.34.82-1.17 1.24-2.29 1.13l-1.04 3.51-1.29 4.43c-.22.77-.44.89-1.23.65a18.8 18.8 0 0 0-5.36-.94 16.6 16.6 0 0 0-5.32.9c-.94.3-1.09.22-1.36-.7l-2.21-7.5-.12-.33v-.02Z" class="cls-38"/><path d="m1.84 184.44 293.85-.79M1.84 120.92l293.85-.79" style="stroke:#89784e;stroke-linecap:round;stroke-miterlimit:10;stroke-width:2px;fill:none"/><path d="M138.88 193.68a9.2 9.2 0 0 1 3.52.72 6.26 6.26 0 0 1 2.76 2.1c.67.92 1 2 1 3.24 0 1.06-.32 2.24-.96 3.54-.34.72-1.13 1.77-2.37 3.15-.76.86-1.87 1.86-3.31 2.99l-2.33 1.81h6.18c.88 0 1.61-.22 2.21-.67s1.15-1.2 1.66-2.24h.3l-1.77 6.78h-14.34v-.3l1.54-1.74 1.71-1.91a62.05 62.05 0 0 0 3.22-3.94c.38-.54.82-1.2 1.33-1.97.51-.77.9-1.45 1.15-2.05.64-1.44.96-2.79.96-4.04s-.34-2.26-1.03-3.04a3.46 3.46 0 0 0-2.72-1.17c-1.46 0-2.56.49-3.3 1.47-.74.98-1.1 2.34-1.08 4.08h-.3l-1.44-4.62c1.62-1.46 4.08-2.19 7.38-2.19Zm13.5 2.95c1.5-1.97 3.55-2.96 6.17-2.96s4.67.99 6.17 2.96 2.25 4.62 2.25 7.96-.75 6-2.25 7.96c-1.5 1.97-3.55 2.96-6.17 2.96s-4.67-.98-6.17-2.96c-1.5-1.97-2.25-4.62-2.25-7.96s.75-6 2.25-7.96Zm6.18-1.7c-1.66 0-2.78 1.44-3.36 4.32a28.59 28.59 0 0 0-.42 5.34c0 3.18.32 5.58.96 7.21.64 1.63 1.58 2.45 2.8 2.45s2.17-.81 2.8-2.45c.64-1.63.96-4.04.96-7.21s-.32-5.58-.96-7.21c-.64-1.63-1.57-2.45-2.79-2.45Z" style="fill:#fef599;stroke-width:0"/></svg>